<svg xmlns="http://www.w3.org/2000/svg" width="122.742" height="42.416" viewBox="0 0 122.742 42.416"><defs><style>.a,.b{isolation:isolate;}.b,.c{fill:#fff;}.b{mix-blend-mode:multiply;}</style></defs><g transform="translate(17070 19497.605)"><g class="a" transform="translate(-17070 -19497.605)"><path class="b" d="M106.607-129.256a9.521,9.521,0,0,0-3.137.766c-.045.158.113.271.338.271a1.56,1.56,0,0,1,.925.518c.474.5.5.721.5,4.486v3.945l-1.173-.586a5.814,5.814,0,0,0-3.227-.586,6.26,6.26,0,0,0-3.295.586c-3.408,1.6-5.123,5.365-4.491,9.829l.248,1.758-1.873,1.782c-1.963,1.87-3.611,2.84-4.9,2.84a4.881,4.881,0,0,1-4.649-3.472,17.177,17.177,0,0,1-.5-2.908l-.135-1.736H91.983l-.113-1.533c-.248-3.066-1.941-5.794-4.2-6.763a12.077,12.077,0,0,0-8.553.293c-4.762,2.164-6.477,8.589-3.611,13.481,2.573,4.373,9.253,5.523,13.856,2.39a28.6,28.6,0,0,0,2.618-2.21,9.564,9.564,0,0,1,1.6-1.353c.045.045.384.7.767,1.443a9.883,9.883,0,0,0,1.557,2.187,6.532,6.532,0,0,0,8.305.722l1.015-.766v1.8h6.544V-129.1l-.5-.338C110.669-129.865,110.4-129.865,106.607-129.256ZM84.739-120.1a4,4,0,0,1,.948,1.623,26.7,26.7,0,0,1,.677,6.086,10.775,10.775,0,0,1-2.6.18h-2.46v-1.1a19.628,19.628,0,0,1,1.015-5.388c.361-.857,1.264-1.849,1.692-1.849A2.473,2.473,0,0,1,84.739-120.1Zm18.663.564a4.67,4.67,0,0,1,1.241,1.037l.587.7-.045,6.537-.068,6.56-.632.473a2.717,2.717,0,0,1-1.67.473,1.827,1.827,0,0,1-1.76-.834c-1.286-1.4-1.58-2.8-1.58-7.619,0-3.449.068-4.373.406-5.343.7-1.984,2.054-2.75,3.521-1.984Z" transform="translate(-57.388 129.738)"></path><path class="b" d="M46.246-89.632a3.612,3.612,0,0,0-1.738,5.162A3.113,3.113,0,0,0,47.442-82.8a3.253,3.253,0,0,0,3.543-3.472,3.211,3.211,0,0,0-1.9-3.179A3.616,3.616,0,0,0,46.246-89.632Z" transform="translate(-34.06 98.838)"></path><path class="b" d="M249.23-89.333a5.321,5.321,0,0,0-3.159,3.156,11.678,11.678,0,0,0-.226,2.277c0,2.953,1.873,4.847,6.657,6.763,3.024,1.195,3.836,1.894,3.656,3.088a2.714,2.714,0,0,1-1.6,2.029,6.99,6.99,0,0,1-4.717-.361,10.9,10.9,0,0,1-3.385-2.953c-.609-.9-.835-.293-.5,1.307a11.063,11.063,0,0,0,.361,1.51,29.112,29.112,0,0,0,5.732,1.4c4.265.338,7.786-2.232,7.786-5.681-.023-3-1.467-4.4-6.454-6.29-2.437-.924-3.972-1.916-4.446-2.908-.406-.812-.406-.857,0-1.691,1.151-2.344,4.92-2.029,7.56.676,1.061,1.082,1.715,1.4,1.444.721a13.057,13.057,0,0,1-.384-1.353l-.249-.97-2.076-.5C252.254-89.806,250.72-89.874,249.23-89.333Z" transform="translate(-190.33 98.719)"></path><path class="b" d="M317.507-89.517a10.06,10.06,0,0,0-4.942,2.728,10.364,10.364,0,0,0-2.166,7.822c1.015,5.455,5.438,8.5,11.125,7.664a11.2,11.2,0,0,0,7.56-4.869l.474-.654.7,1.15c2.708,4.418,7.9,5.771,12.863,3.359,1.692-.812,3.182-2.209,8.011-7.574l3.543-3.922v-2.345c0-3.562-.18-3.652-5.461-2.615a21.127,21.127,0,0,0-3.114.744c0,.068.316.248.677.383,1.173.428,1.354,1.285,1.354,6.041v4.193l-1.805,1.8c-1.918,1.916-3.588,2.908-4.942,2.908a4.86,4.86,0,0,1-4.626-3.291,14.588,14.588,0,0,1-.519-2.976l-.135-1.849h10.742l-.135-1.533c-.451-5.388-4.175-8.138-9.862-7.281a8.708,8.708,0,0,0-7.064,5.162c-.7,1.443-.722,1.623-.722,4.373v2.863l-.88,1.127a10.562,10.562,0,0,1-3.836,3.066,4.771,4.771,0,0,1-6.3-3.269,16.633,16.633,0,0,1-.5-2.885l-.158-1.623h10.923l-.158-1.42c-.542-4.712-3.024-7.259-7.334-7.484a13.709,13.709,0,0,0-3.317.2Zm3.2.045c.88.338,1.6,2.8,1.85,6.2l.135,2.006h-5.326l.158-1.646c.316-3.224,1.2-5.929,2.1-6.447a.961.961,0,0,1,1.083-.113Zm18.889.316a3.572,3.572,0,0,1,.948,1.8,24.608,24.608,0,0,1,.655,5.906,9.252,9.252,0,0,1-2.573.18h-2.46v-1.1a19.635,19.635,0,0,1,1.016-5.388c.361-.857,1.264-1.849,1.692-1.849a2.205,2.205,0,0,1,.722.451Z" transform="translate(-240.26 98.791)"></path><path class="b" d="M514.9-89.44a3.284,3.284,0,0,0-1.9,3.2,3.253,3.253,0,0,0,3.543,3.472,3.3,3.3,0,0,0,3.408-3.291,2.4,2.4,0,0,0-.451-1.961A3.519,3.519,0,0,0,514.9-89.44Z" transform="translate(-397.231 98.804)"></path><path class="b" d="M3-87.159a15.11,15.11,0,0,0-3,.744c0,.113.158.18.361.18a2.3,2.3,0,0,1,1.015.654l.654.654v15.374H8.576V-78.3c0-8.206-.023-8.791-.406-9.13C7.605-87.926,6.612-87.881,3-87.159Z" transform="translate(0 97.222)"></path><path class="b" d="M481.227-53.461,478-49.922v4.193h6.544v-5.636c0-3.111-.023-5.636-.045-5.636C484.454-57,482.987-55.4,481.227-53.461Z" transform="translate(-370.13 73.397)"></path></g><path class="c" d="M4.653-30.9a5.273,5.273,0,0,1-1.127-.126,3.133,3.133,0,0,1-.876-.3v-1.384H2.7l1.819,1.365a.706.706,0,0,0,.339.058,1.228,1.228,0,0,0,.861-.329,1.115,1.115,0,0,0,.358-.861,1.02,1.02,0,0,0-.179-.59,1.436,1.436,0,0,0-.469-.431q-.29-.169-.634-.329T4.1-34.169a4.207,4.207,0,0,1-.639-.4,1.667,1.667,0,0,1-.469-.571,1.711,1.711,0,0,1-.179-.794A1.8,1.8,0,0,1,3.521-37.4a2.772,2.772,0,0,1,1.8-.571,6.012,6.012,0,0,1,1.123.106,2.29,2.29,0,0,1,.794.261v1.239H7.189L5.611-37.542a.675.675,0,0,0-.232-.039,1.058,1.058,0,0,0-.76.281.945.945,0,0,0-.3.716,1.02,1.02,0,0,0,.179.59,1.436,1.436,0,0,0,.469.431q.29.169.634.329T6.3-34.9a4.207,4.207,0,0,1,.639.4,1.667,1.667,0,0,1,.469.571,1.711,1.711,0,0,1,.179.794,1.93,1.93,0,0,1-.808,1.611A3.418,3.418,0,0,1,4.653-30.9Zm6.707,0a1.537,1.537,0,0,1-.837-.223,1.042,1.042,0,0,1-.46-.677v-3.7H9.424v-.048l1.994-1.577h.174v1.074h1.239l-.077.552H11.592v3.077a.718.718,0,0,0,.184.537.677.677,0,0,0,.494.179,1.064,1.064,0,0,0,.687-.242L13-31.91a1.658,1.658,0,0,1-.653.735A1.837,1.837,0,0,1,11.36-30.9Zm3.416-.194.435-.465v-3.6l-.513-.513v-.039l1.829-.484h.1l.068,1.035h.058a2.8,2.8,0,0,1,.6-.794A.994.994,0,0,1,18-36.2a.679.679,0,0,1,.445.135v1.568H18.4l-.977-.658a.36.36,0,0,0-.087-.01.592.592,0,0,0-.334.126.729.729,0,0,0-.256.3v3.174l.513.465v.048H14.776Zm8.99.194a.957.957,0,0,1-.644-.227.864.864,0,0,1-.3-.585H22.75a2.319,2.319,0,0,1-1.626.813,1.165,1.165,0,0,1-.847-.315,1.077,1.077,0,0,1-.324-.808A1.269,1.269,0,0,1,20.428-33a4.562,4.562,0,0,1,1.5-.779l.842-.3V-34.6a.637.637,0,0,0-.227-.518.965.965,0,0,0-.634-.189,1.718,1.718,0,0,0-.856.232,1.986,1.986,0,0,0-.682.639l-.039-.019a2.108,2.108,0,0,1,.731-1.287,2.237,2.237,0,0,1,1.447-.455,2.207,2.207,0,0,1,1.292.348,1.064,1.064,0,0,1,.5.91v3.077l.513.271v.048a1.126,1.126,0,0,1-.431.465A1.159,1.159,0,0,1,23.766-30.9ZM21.337-32.51a.77.77,0,0,0,.218.561.745.745,0,0,0,.556.223.825.825,0,0,0,.658-.31v-1.694l-.455.174Q21.337-33.177,21.337-32.51ZM28.257-30.9a1.537,1.537,0,0,1-.837-.223,1.042,1.042,0,0,1-.46-.677v-3.7h-.639v-.048l1.994-1.577h.174v1.074h1.239l-.077.552H28.489v3.077a.718.718,0,0,0,.184.537.677.677,0,0,0,.494.179,1.064,1.064,0,0,0,.687-.242l.039.039a1.658,1.658,0,0,1-.653.735A1.837,1.837,0,0,1,28.257-30.9Zm5.787,0a2.362,2.362,0,0,1-1.771-.706,2.552,2.552,0,0,1-.687-1.858,2.778,2.778,0,0,1,.711-1.955,2.333,2.333,0,0,1,1.8-.774q1.8,0,2.177,2.265H32.844a2.376,2.376,0,0,0,.561,1.442,1.621,1.621,0,0,0,1.258.532A1.867,1.867,0,0,0,36.3-32.9l.048.029a2.378,2.378,0,0,1-.774,1.442A2.267,2.267,0,0,1,34.044-30.9Zm-.252-4.906a.792.792,0,0,0-.711.392,2.149,2.149,0,0,0-.247,1.137h2.013a3.116,3.116,0,0,0-.392-1.171A.767.767,0,0,0,33.792-35.81Zm6.552,6.7A3.2,3.2,0,0,1,38.7-29.5a1.119,1.119,0,0,1-.648-.973.509.509,0,0,1,.116-.358l.706-.261v-.029a.9.9,0,0,1-.494-.852,1.048,1.048,0,0,1,.266-.711,1.377,1.377,0,0,1,.711-.421v-.019a1.812,1.812,0,0,1-.8-.571,1.333,1.333,0,0,1-.3-.842,1.448,1.448,0,0,1,.619-1.185,2.424,2.424,0,0,1,1.529-.479,2.808,2.808,0,0,1,1.181.261l1.355-.281H43v.8h-.048l-1.123-.329-.019.039a1.264,1.264,0,0,1,.552.46,1.2,1.2,0,0,1,.2.682,1.4,1.4,0,0,1-.634,1.156,2.537,2.537,0,0,1-1.553.469,2.786,2.786,0,0,1-.823-.116.429.429,0,0,0-.223.387.474.474,0,0,0,.169.377.683.683,0,0,0,.46.145h2.6a.839.839,0,0,1,.465.4,1.324,1.324,0,0,1,.174.677,1.648,1.648,0,0,1-.813,1.4A3.534,3.534,0,0,1,40.344-29.113Zm.145-4.152q.629,0,.629-1.152a2.232,2.232,0,0,0-.208-1.065.637.637,0,0,0-.576-.377q-.629,0-.629,1.142a2.224,2.224,0,0,0,.213,1.065A.64.64,0,0,0,40.489-33.264ZM38.95-30.71a1.018,1.018,0,0,0,.489.856,2.043,2.043,0,0,0,1.2.344,1.894,1.894,0,0,0,1.069-.285.836.836,0,0,0,.431-.711q0-.465-.552-.465h-2.11a1.433,1.433,0,0,1-.455-.077A.675.675,0,0,0,38.95-30.71Zm6.436,1.6a1.582,1.582,0,0,1-.7-.126v-1.4h.048l1.19.648a1.366,1.366,0,0,0,.184.01.668.668,0,0,0,.445-.155,1.773,1.773,0,0,0,.387-.59l-2-4.8L44.583-36v-.048H47.06V-36l-.465.474,1.181,3.116,1.065-2.971L48.231-36v-.048h1.481V-36l-.416.619-1.616,4.1Q46.837-29.113,45.386-29.113ZM57.9-30.9a2.979,2.979,0,0,1-2.269-.953,3.375,3.375,0,0,1-.9-2.4,3.641,3.641,0,0,1,1.016-2.686,3.627,3.627,0,0,1,2.69-1.021,4.218,4.218,0,0,1,1.694.319v1.539h-.048L58.334-37.5a.9.9,0,0,0-.252-.029,1.345,1.345,0,0,0-1.152.76,3.568,3.568,0,0,0-.465,1.892,3.507,3.507,0,0,0,.634,2.168,1.964,1.964,0,0,0,1.64.842,1.733,1.733,0,0,0,1.6-.958l.048.019a2.017,2.017,0,0,1-.8,1.384A2.7,2.7,0,0,1,57.9-30.9Zm6.977,0a2.483,2.483,0,0,1-1.858-.711,2.574,2.574,0,0,1-.7-1.882,2.672,2.672,0,0,1,.731-1.955,2.545,2.545,0,0,1,1.9-.745,2.487,2.487,0,0,1,1.853.711,2.577,2.577,0,0,1,.7,1.892,2.666,2.666,0,0,1-.726,1.95A2.55,2.55,0,0,1,64.876-30.9Zm.155-.4q.91,0,.91-1.965a4.556,4.556,0,0,0-.31-1.858q-.31-.677-.832-.677-.91,0-.91,1.965a4.562,4.562,0,0,0,.31,1.853Q64.509-31.3,65.031-31.3Zm6.445-3.629v3.368l.435.465v.048h-2.4V-31.1l.435-.465v-3.6l-.513-.513v-.048l1.829-.474h.1l.068.91H71.5a2.3,2.3,0,0,1,1.742-.91,1.488,1.488,0,0,1,1.055.377,1.273,1.273,0,0,1,.406.977v3.281l.435.465v.048h-2.41V-31.1l.445-.494v-2.952a.759.759,0,0,0-.2-.561.745.745,0,0,0-.552-.2A1.541,1.541,0,0,0,71.476-34.929ZM78.831-30.9a5,5,0,0,1-.919-.1,3.212,3.212,0,0,1-.784-.227v-1.21h.048l1.394,1.123a.88.88,0,0,0,.339.077.76.76,0,0,0,.576-.227.825.825,0,0,0,.218-.6.655.655,0,0,0-.256-.523,2.109,2.109,0,0,0-.624-.348q-.368-.135-.735-.3a1.6,1.6,0,0,1-.624-.484,1.247,1.247,0,0,1-.256-.8,1.5,1.5,0,0,1,.566-1.219,2.283,2.283,0,0,1,1.5-.465,3.524,3.524,0,0,1,1.471.271v1.065h-.048L79.567-35.8a.806.806,0,0,0-.29-.048.746.746,0,0,0-.537.2.7.7,0,0,0-.208.527.664.664,0,0,0,.256.532,2.109,2.109,0,0,0,.624.348q.368.135.731.3a1.645,1.645,0,0,1,.619.474,1.207,1.207,0,0,1,.256.789,1.593,1.593,0,0,1-.585,1.3A2.457,2.457,0,0,1,78.831-30.9Zm5.961,0a1.462,1.462,0,0,1-1.035-.377,1.328,1.328,0,0,1-.4-.977v-2.9l-.513-.513v-.048l1.945-.474h.1v3.639a.781.781,0,0,0,.194.561.7.7,0,0,0,.532.2,1.513,1.513,0,0,0,.91-.377v-2.981l-.513-.513v-.048l1.945-.484h.1v4.365l.474.484v.048l-1.819.387-.135-.9h-.068A2.256,2.256,0,0,1,84.793-30.9Zm8.158-.194v.048h-2.4V-31.1l.435-.484v-5.884l-.513-.513v-.039l1.945-.484h.1v6.919ZM96.7-30.9a1.537,1.537,0,0,1-.837-.223,1.042,1.042,0,0,1-.46-.677v-3.7H94.76v-.048l1.994-1.577h.174v1.074h1.239l-.077.552H96.928v3.077a.718.718,0,0,0,.184.537.677.677,0,0,0,.494.179,1.064,1.064,0,0,0,.687-.242l.039.039a1.658,1.658,0,0,1-.653.735A1.837,1.837,0,0,1,96.7-30.9Zm7.258,0a.957.957,0,0,1-.644-.227.864.864,0,0,1-.3-.585h-.068a2.319,2.319,0,0,1-1.626.813,1.165,1.165,0,0,1-.847-.315,1.077,1.077,0,0,1-.324-.808,1.269,1.269,0,0,1,.474-.973,4.562,4.562,0,0,1,1.5-.779l.842-.3V-34.6a.637.637,0,0,0-.227-.518.965.965,0,0,0-.634-.189,1.718,1.718,0,0,0-.856.232,1.985,1.985,0,0,0-.682.639l-.039-.019a2.108,2.108,0,0,1,.731-1.287A2.237,2.237,0,0,1,102.7-36.2a2.207,2.207,0,0,1,1.292.348,1.064,1.064,0,0,1,.5.91v3.077l.513.271v.048a1.126,1.126,0,0,1-.431.465A1.159,1.159,0,0,1,103.954-30.9Zm-2.429-1.606a.77.77,0,0,0,.218.561.745.745,0,0,0,.556.223.825.825,0,0,0,.658-.31v-1.694l-.455.174Q101.525-33.177,101.525-32.51Zm7.21-2.419v3.368l.435.465v.048h-2.4V-31.1l.436-.465v-3.6l-.513-.513v-.048l1.829-.474h.1l.068.91h.068a2.3,2.3,0,0,1,1.742-.91,1.488,1.488,0,0,1,1.055.377,1.273,1.273,0,0,1,.406.977v3.281l.435.465v.048h-2.41V-31.1l.445-.494v-2.952a.759.759,0,0,0-.2-.561.745.745,0,0,0-.552-.2A1.541,1.541,0,0,0,108.735-34.929Zm7.277,4.026a1.537,1.537,0,0,1-.837-.223,1.042,1.042,0,0,1-.46-.677v-3.7h-.639v-.048l1.994-1.577h.174v1.074h1.239l-.077.552h-1.161v3.077a.718.718,0,0,0,.184.537.677.677,0,0,0,.494.179,1.064,1.064,0,0,0,.687-.242l.039.039a1.658,1.658,0,0,1-.653.735A1.837,1.837,0,0,1,116.012-30.9Zm5.168,0a5,5,0,0,1-.919-.1,3.212,3.212,0,0,1-.784-.227v-1.21h.048l1.394,1.123a.88.88,0,0,0,.339.077.76.76,0,0,0,.576-.227.825.825,0,0,0,.218-.6.655.655,0,0,0-.256-.523,2.109,2.109,0,0,0-.624-.348q-.368-.135-.735-.3a1.6,1.6,0,0,1-.624-.484,1.247,1.247,0,0,1-.256-.8,1.5,1.5,0,0,1,.566-1.219,2.283,2.283,0,0,1,1.5-.465,3.524,3.524,0,0,1,1.471.271v1.065h-.048l-1.123-.939a.805.805,0,0,0-.29-.048.746.746,0,0,0-.537.2.7.7,0,0,0-.208.527.664.664,0,0,0,.256.532,2.109,2.109,0,0,0,.624.348q.368.135.731.3a1.645,1.645,0,0,1,.619.474,1.207,1.207,0,0,1,.256.789,1.593,1.593,0,0,1-.585,1.3A2.457,2.457,0,0,1,121.18-30.9Z" transform="translate(-17070.625 -19426.076)"></path></g></svg>